<svg width="17" height="17" viewBox="0 0 17 17" fill="none" xmlns="http://www.w3.org/2000/svg">
<mask id="path-1-outside-1_3030_7859" maskUnits="userSpaceOnUse" x="1.54199" y="2.25" width="13" height="14" fill="black">
<rect fill="white" x="1.54199" y="2.25" width="13" height="14"/>
<path d="M9.56283 5.3125L4.64204 10.2333C4.44739 10.4279 4.35006 10.5253 4.28309 10.6436C4.21612 10.7618 4.18273 10.8954 4.11597 11.1624L3.74411 12.6499C3.65385 13.0109 3.60872 13.1914 3.70881 13.2915C3.8089 13.3916 3.98941 13.3465 4.35044 13.2562L4.35044 13.2562L5.8379 12.8844C6.10496 12.8176 6.23849 12.7842 6.35677 12.7172C6.47506 12.6503 6.57239 12.5529 6.76704 12.3583L11.6878 7.4375C12.019 7.1063 12.1846 6.9407 12.2608 6.75579C12.3612 6.51187 12.3612 6.23813 12.2608 5.99421C12.1846 5.8093 12.019 5.6437 11.6878 5.3125C11.3566 4.9813 11.191 4.8157 11.0061 4.73955C10.7622 4.6391 10.4885 4.6391 10.2445 4.73955C10.0596 4.8157 9.89402 4.9813 9.56283 5.3125Z"/>
</mask>
<path d="M4.64204 10.2333L6.05625 11.6475L6.05625 11.6475L4.64204 10.2333ZM9.56283 5.3125L8.14861 3.89828L8.14861 3.89829L9.56283 5.3125ZM11.6878 7.4375L10.2736 6.02329L11.6878 7.4375ZM6.76704 12.3583L8.18125 13.7725L6.76704 12.3583ZM4.11597 11.1624L6.05625 11.6475L4.11597 11.1624ZM3.74411 12.6499L1.80382 12.1648L1.80382 12.1648L3.74411 12.6499ZM4.35044 13.2562L3.86537 11.3159L3.77824 11.3377L3.6934 11.3672L4.35044 13.2562ZM5.8379 12.8844L6.32297 14.8246H6.32297L5.8379 12.8844ZM3.70881 13.2915L5.12303 11.8773L5.12302 11.8773L3.70881 13.2915ZM4.35044 13.2562L4.8355 15.1965L4.92264 15.1747L5.00748 15.1452L4.35044 13.2562ZM6.35677 12.7172L7.34217 14.4576L7.34217 14.4576L6.35677 12.7172ZM11.6878 5.3125L10.2736 6.72671V6.72671L11.6878 5.3125ZM12.2608 5.99421L14.1101 5.23262L14.1101 5.23261L12.2608 5.99421ZM12.2608 6.75579L14.1101 7.51739L14.1101 7.51738L12.2608 6.75579ZM10.2445 4.73955L11.0061 6.58887L11.0061 6.58887L10.2445 4.73955ZM11.0061 4.73955L11.7677 2.89024L11.7677 2.89023L11.0061 4.73955ZM4.28309 10.6436L2.54269 9.65815L2.54269 9.65815L4.28309 10.6436ZM6.05625 11.6475L10.977 6.72671L8.14861 3.89829L3.22783 8.81907L6.05625 11.6475ZM10.2736 6.02329L5.35283 10.9441L8.18125 13.7725L13.102 8.85171L10.2736 6.02329ZM2.17568 10.6774L1.80382 12.1648L5.68439 13.135L6.05625 11.6475L2.17568 10.6774ZM4.83552 15.1965L6.32297 14.8246L5.35283 10.9441L3.86537 11.3159L4.83552 15.1965ZM1.80382 12.1648C1.775 12.2801 1.69255 12.5879 1.66458 12.8738C1.63419 13.1845 1.60708 14.0182 2.2946 14.7057L5.12302 11.8773C5.3887 12.143 5.54113 12.4588 5.60844 12.7512C5.66712 13.0061 5.65164 13.2012 5.64557 13.2633C5.63898 13.3307 5.62991 13.3624 5.639 13.3214C5.64736 13.2837 5.65987 13.233 5.68439 13.135L1.80382 12.1648ZM3.6934 11.3672L3.69339 11.3672L5.00748 15.1452L5.00749 15.1452L3.6934 11.3672ZM3.86537 11.3159C3.7673 11.3405 3.71666 11.353 3.67893 11.3613C3.63794 11.3704 3.66961 11.3613 3.73706 11.3547C3.79911 11.3487 3.99423 11.3332 4.24916 11.3919C4.54154 11.4592 4.85735 11.6116 5.12303 11.8773L2.29459 14.7057C2.9821 15.3932 3.81586 15.3661 4.12648 15.3357C4.41238 15.3078 4.72021 15.2253 4.8355 15.1965L3.86537 11.3159ZM5.35283 10.9441C5.32812 10.9688 5.30703 10.9899 5.28747 11.0093C5.26804 11.0287 5.25204 11.0445 5.23826 11.058C5.22449 11.0715 5.21444 11.0812 5.20704 11.0882C5.20344 11.0916 5.20078 11.0941 5.19893 11.0958C5.19709 11.0975 5.19623 11.0983 5.19624 11.0982C5.19626 11.0982 5.1973 11.0973 5.19927 11.0956C5.20125 11.0939 5.20426 11.0913 5.20823 11.088C5.21618 11.0814 5.22824 11.0716 5.24398 11.0598C5.25987 11.0479 5.27894 11.0343 5.30096 11.0199C5.32309 11.0053 5.34663 10.9908 5.37138 10.9768L7.34217 14.4576C7.75131 14.226 8.06168 13.8921 8.18125 13.7725L5.35283 10.9441ZM6.32297 14.8246C6.48702 14.7836 6.93303 14.6893 7.34217 14.4576L5.37138 10.9768C5.39613 10.9628 5.42063 10.9501 5.4445 10.9386C5.46826 10.9272 5.48971 10.9178 5.5081 10.9103C5.52631 10.9029 5.54086 10.8975 5.55062 10.8941C5.5555 10.8924 5.55926 10.8912 5.56175 10.8903C5.56422 10.8895 5.56556 10.8891 5.56559 10.8891C5.56561 10.8891 5.5645 10.8895 5.56209 10.8902C5.55967 10.8909 5.55617 10.8919 5.55139 10.8932C5.54158 10.8959 5.5281 10.8996 5.50946 10.9044C5.4908 10.9093 5.469 10.9149 5.44242 10.9216C5.41566 10.9284 5.38672 10.9356 5.35283 10.9441L6.32297 14.8246ZM10.2736 6.72671C10.3591 6.81223 10.4214 6.87454 10.4735 6.92809C10.5257 6.98163 10.551 7.00935 10.5623 7.02235C10.5732 7.03486 10.5552 7.01564 10.5261 6.97237C10.4943 6.92505 10.451 6.85189 10.4115 6.7558L14.1101 5.23261C13.9542 4.85413 13.7374 4.57735 13.5776 4.39407C13.4298 4.22446 13.2482 4.04443 13.102 3.89829L10.2736 6.72671ZM13.102 8.85171C13.2482 8.70557 13.4298 8.52554 13.5776 8.35593C13.7374 8.17265 13.9542 7.89587 14.1101 7.51739L10.4115 5.9942C10.451 5.89811 10.4943 5.82495 10.5261 5.77763C10.5552 5.73436 10.5732 5.71514 10.5623 5.72765C10.551 5.74065 10.5257 5.76837 10.4735 5.82191C10.4214 5.87546 10.3591 5.93777 10.2736 6.02329L13.102 8.85171ZM10.4115 6.75579C10.311 6.51187 10.311 6.23813 10.4115 5.99421L14.1101 7.51738C14.4115 6.78561 14.4115 5.96439 14.1101 5.23262L10.4115 6.75579ZM10.977 6.72671C11.0626 6.6412 11.1249 6.57894 11.1784 6.52678C11.232 6.47465 11.2597 6.44937 11.2727 6.43804C11.2852 6.42714 11.266 6.44513 11.2227 6.47423C11.1754 6.50606 11.1022 6.5493 11.0061 6.58887L9.48294 2.89023C9.10445 3.0461 8.82768 3.26297 8.6444 3.42272C8.47479 3.57056 8.29476 3.75214 8.14861 3.89828L10.977 6.72671ZM13.102 3.89829C12.9559 3.75214 12.7759 3.57056 12.6063 3.42272C12.423 3.26297 12.1462 3.0461 11.7677 2.89024L10.2445 6.58887C10.1484 6.5493 10.0753 6.50606 10.028 6.47423C9.98469 6.44513 9.96546 6.42714 9.97798 6.43804C9.99097 6.44937 10.0187 6.47465 10.0722 6.52678C10.1258 6.57894 10.1881 6.6412 10.2736 6.72671L13.102 3.89829ZM11.0061 6.58887C10.7622 6.68933 10.4885 6.68933 10.2445 6.58887L11.7677 2.89023C11.0359 2.58887 10.2147 2.58887 9.48294 2.89024L11.0061 6.58887ZM3.22783 8.81907C3.10825 8.93864 2.77434 9.24901 2.54269 9.65815L6.02349 11.6289C6.00948 11.6537 5.99503 11.6772 5.98047 11.6994C5.96598 11.7214 5.9524 11.7405 5.94049 11.7563C5.92869 11.7721 5.91896 11.7841 5.91234 11.7921C5.90904 11.7961 5.90646 11.7991 5.90475 11.8011C5.90304 11.803 5.9021 11.8041 5.90208 11.8041C5.90207 11.8041 5.90284 11.8032 5.90455 11.8014C5.90626 11.7995 5.90875 11.7969 5.91216 11.7933C5.91917 11.7859 5.92885 11.7758 5.94233 11.7621C5.95582 11.7483 5.97165 11.7323 5.99099 11.7129C6.01045 11.6933 6.03155 11.6722 6.05625 11.6475L3.22783 8.81907ZM6.05625 11.6475C6.06473 11.6136 6.07196 11.5847 6.07872 11.5579C6.08543 11.5313 6.09101 11.5095 6.09588 11.4909C6.10075 11.4722 6.10439 11.4587 6.10713 11.4489C6.10846 11.4442 6.10946 11.4407 6.11017 11.4382C6.11087 11.4358 6.11121 11.4347 6.1112 11.4347C6.1112 11.4348 6.11078 11.4361 6.10998 11.4386C6.10916 11.4411 6.10791 11.4448 6.1062 11.4497C6.10279 11.4595 6.09745 11.474 6.09002 11.4922C6.08253 11.5106 6.07316 11.5321 6.06174 11.5558C6.05026 11.5797 6.0375 11.6042 6.02349 11.6289L2.54269 9.65815C2.31104 10.0673 2.2167 10.5133 2.17568 10.6774L6.05625 11.6475Z" fill="#2F2A60" mask="url(#path-1-outside-1_3030_7859)"/>
<path d="M8.85449 5.31242L10.9795 3.89575L13.1045 6.02075L11.6878 8.14575L8.85449 5.31242Z" fill="#2F2A60"/>
</svg>
