<svg width="15" height="15" viewBox="0 0 15 15" fill="none" xmlns="http://www.w3.org/2000/svg">
<path d="M5.62456 6.875C5.62456 6.52982 5.90438 6.25 6.24956 6.25C6.59474 6.25 6.87456 6.52982 6.87456 6.875V10.625C6.87456 10.9702 6.59474 11.25 6.24956 11.25C5.90438 11.25 5.62456 10.9702 5.62456 10.625V6.875Z" fill="#2F2A60"/>
<path d="M8.74956 6.25C8.40438 6.25 8.12456 6.52982 8.12456 6.875V10.625C8.12456 10.9702 8.40438 11.25 8.74956 11.25C9.09474 11.25 9.37456 10.9702 9.37456 10.625V6.875C9.37456 6.52982 9.09474 6.25 8.74956 6.25Z" fill="#2F2A60"/>
<path fill-rule="evenodd" clip-rule="evenodd" d="M5.33151 0.625C3.45183 0.625 1.9975 2.27244 2.23065 4.13761L3.30502 12.7326C3.4223 13.6709 4.21993 14.375 5.16554 14.375H9.83358C10.7792 14.375 11.5768 13.6709 11.6941 12.7326L12.7685 4.13761C13.0016 2.27244 11.5473 0.625 9.6676 0.625H5.33151ZM3.56298 3.125C3.81872 2.40344 4.5069 1.875 5.33151 1.875H9.6676C10.4922 1.875 11.1804 2.40344 11.4361 3.125H3.56298ZM3.52005 4.375L4.54536 12.5775C4.58446 12.8903 4.85034 13.125 5.16554 13.125H9.83358C10.1488 13.125 10.4147 12.8903 10.4538 12.5775L11.4791 4.375H3.52005Z" fill="#2F2A60"/>
</svg>
